#!OML:ASF F:\VICON\USERDATA\INSTALL\rory3\rory3.ASF
:FULLY-SPECIFIED
:DEGREES
107
root 1.1647 17.4405 -17.4145 6.31126 -1.29383 -1.01024
lowerback 12.1529 -0.673974 -0.196074
upperback 0.339131 -0.749945 2.58921
thorax -6.43164 -0.320816 2.9748
lowerneck -18.8675 -5.55597 -10.5229
upperneck 14.4283 -6.15652 7.69581
head 8.14021 -2.76098 3.51158
rclavicle 1.61016e-014 2.38542e-014
rhumerus -31.0958 0.801093 -84.4401
rradius 46.7099
rwrist 0.929751
rhand -9.77104 15.3305
rfingers 7.12502
rthumb 16.2041 -14.0123
lclavicle 1.61016e-014 2.38542e-014
lhumerus -31.5246 0.0609599 87.0124
lradius 42.4514
lwrist -3.66856
lhand -16.5224 21.3514
lfingers 7.12502
lthumb 9.69612 51.1082
rfemur -19.535 2.89645 22.5192
rtibia 34.3212
rfoot -15.2957 -9.38363
rtoes 0.0342511
lfemur -21.2281 1.54937 -20.1761
ltibia 35.2764
lfoot -17.1463 2.76075
ltoes 2.52892
108
root 1.17084 17.3812 -17.4444 6.23188 -1.29654 -1.00851
lowerback 12.6624 -0.665832 -0.213471
upperback 0.458718 -0.734467 2.63132
thorax -6.59077 -0.310971 3.0364
lowerneck -18.9774 -5.49019 -10.6062
upperneck 14.1544 -6.04145 7.82201
head 8.06318 -2.69542 3.58075
rclavicle -5.06901e-015 1.59028e-015
rhumerus -31.1259 1.30239 -84.4818
rradius 47.7095
rwrist 0.48003
rhand -9.8442 16.3657
rfingers 7.12502
rthumb 16.1337 -12.9828
lclavicle -5.06901e-015 1.59028e-015
lhumerus -31.5476 -0.205068 87.142
lradius 43.4743
lwrist -3.37979
lhand -15.2193 23.3674
lfingers 7.12502
lthumb 10.9533 53.0617
rfemur -20.3401 2.53668 22.5293
rtibia 35.7926
rfoot -15.8675 -9.27615
rtoes -0.416793
lfemur -21.9432 1.80407 -20.2057
ltibia 36.5733
lfoot -17.701 2.46275
ltoes 2.89214
109
root 1.17992 17.3307 -17.4795 6.22793 -1.34366 -0.969925
lowerback 13.1797 -0.62818 -0.223606
upperback 0.621982 -0.681325 2.64835
thorax -6.70957 -0.284103 3.05953
lowerneck -19.3496 -5.49237 -10.6273
upperneck 13.9333 -5.99202 7.85096
head 8.04955 -2.66115 3.59467
rclavicle -8.24956e-015 -1.59028e-014
rhumerus -30.8249 1.81485 -84.4755
rradius 48.5307
rwrist 0.102328
rhand -10.0055 16.4998
rfingers 7.12502
rthumb 15.9783 -12.8612
lclavicle -8.24956e-015 -1.59028e-014
lhumerus -31.4367 -0.540751 87.2559
lradius 44.5578
lwrist -3.29662
lhand -15.0092 23.7232
lfingers 7.12502
lthumb 11.1559 53.4066
rfemur -21.2521 2.18554 22.4963
rtibia 37.2591
rfoot -16.4482 -9.21948
rtoes -0.906096
lfemur -22.7092 2.08583 -20.3129
ltibia 37.8676
lfoot -18.2782 2.28348
ltoes 2.89753
110
root 1.18646 17.2838 -17.5189 6.25425 -1.29503 -0.831327
lowerback 13.7552 -0.620927 -0.289364
upperback 0.69838 -0.681057 2.57627
thorax -6.9503 -0.280656 3.03216
lowerneck -19.356 -5.49499 -10.3718
upperneck 13.4674 -6.00855 7.67691
head 7.88247 -2.67028 3.48859
rclavicle -7.15625e-015 -2.14687e-014
rhumerus -30.6943 2.19987 -84.5498
rradius 49.5152
rwrist -0.0241655
rhand -10.073 16.3202
rfingers 7.12502
rthumb 15.9133 -13.046
lclavicle -7.15625e-015 -2.14687e-014
lhumerus -31.6022 -0.982665 87.2327
lradius 45.9039
lwrist -3.22209
lhand -14.992 23.7034
lfingers 7.12502
lthumb 11.1725 53.386
rfemur -22.243 1.84033 22.3715
rtibia 38.7336
rfoot -16.9667 -9.25413
rtoes -1.4456
lfemur -23.5455 2.244 -20.5163
ltibia 39.143
lfoot -18.7926 2.16337
ltoes 2.63122
111
root 1.18801 17.2248 -17.5561 6.19577 -1.18459 -0.710782
lowerback 14.3641 -0.612519 -0.377443
upperback 0.837506 -0.683762 2.51856
thorax -7.14139 -0.278631 3.03282
lowerneck -19.5415 -5.52156 -10.2767
upperneck 13.101 -6.03929 7.7121
head 7.79294 -2.67132 3.47661
rclavicle 1.25234e-014 -9.93923e-015
rhumerus -30.6324 2.46231 -84.5866
rradius 50.7272
rwrist -0.0675285
rhand -10.0045 16.7171
rfingers 7.12502
rthumb 15.9794 -12.6438
lclavicle 1.25234e-014 -9.93923e-015
lhumerus -31.5695 -1.57416 87.2302
lradius 47.1502
lwrist -2.79218
lhand -15.3789 23.3397
lfingers 7.12502
lthumb 10.7993 53.0421
rfemur -23.1217 1.52495 22.2886
rtibia 40.2261
rfoot -17.4047 -9.32654
rtoes -2.23146
lfemur -24.3478 2.45352 -20.6802
ltibia 40.4046
lfoot -19.1975 1.95836
ltoes 2.49057
112
root 1.18804 17.1623 -17.5971 6.1119 -1.08035 -0.60133
lowerback 15.0387 -0.591319 -0.457655
upperback 1.03987 -0.668667 2.47878
thorax -7.30101 -0.268689 3.04474
lowerneck -19.8523 -5.59041 -10.3087
upperneck 12.7143 -6.09272 7.82774
head 7.72677 -2.67939 3.50778
rclavicle -6.36111e-015 3.45885e-014
rhumerus -30.5115 2.76424 -84.6076
rradius 52.1254
rwrist -0.243962
rhand -9.70852 15.9801
rfingers 7.12502
rthumb 16.2643 -13.3578
lclavicle -6.36111e-015 3.45885e-014
lhumerus -31.3535 -2.12641 87.2542
lradius 48.4001
lwrist -2.30487
lhand -15.0892 24.2971
lfingers 7.12502
lthumb 11.0787 53.9847
rfemur -23.9576 1.2625 22.2019
rtibia 41.7516
rfoot -17.8935 -9.17607
rtoes -1.86914
lfemur -25.141 2.69982 -20.8309
ltibia 41.6532
lfoot -19.5894 1.78714
ltoes 2.28459
113
root 1.18777 17.0981 -17.6451 6.11806 -0.910258 -0.564921
lowerback 15.7511 -0.596726 -0.519723
upperback 1.16617 -0.678061 2.52736
thorax -7.55993 -0.26775 3.14905
lowerneck -20.0601 -5.65159 -10.2398
upperneck 12.2538 -6.13423 7.74348
head 7.60718 -2.69802 3.45768
rclavicle 3.77691e-015 -1.03368e-014
rhumerus -30.3292 3.19504 -84.5548
rradius 53.3532
rwrist -0.561425
rhand -9.4317 14.5499
rfingers 7.12502
rthumb 16.5308 -14.7659
lclavicle 3.77691e-015 -1.03368e-014
lhumerus -31.2712 -2.38019 87.3412
lradius 49.7981
lwrist -2.01208
lhand -13.603 27.0246
lfingers 7.12502
lthumb 12.5119 56.63
rfemur -24.9385 0.975389 22.215
rtibia 43.3001
rfoot -18.4062 -9.16296
rtoes -1.41246
lfemur -26.0825 2.85951 -20.8812
ltibia 42.9122
lfoot -19.9441 1.54148
ltoes 2.8921
114
root 1.18941 17.0351 -17.6877 6.18834 -0.821078 -0.460051
lowerback 16.3886 -0.573548 -0.642009
upperback 1.21461 -0.66359 2.54015
thorax -7.86132 -0.252379 3.2444
lowerneck -19.9669 -5.63828 -10.2239
upperneck 11.6799 -6.10616 7.77538
head 7.40006 -2.68181 3.46859
rclavicle -1.23246e-014 1.66979e-014
rhumerus -30.2688 3.5873 -84.519
rradius 54.5969
rwrist -0.897231
rhand -9.43163 14.2033
rfingers 7.12502
rthumb 16.5309 -15.1125
lclavicle -1.23246e-014 1.66979e-014
lhumerus -31.2282 -2.6329 87.4034
lradius 51.0446
lwrist -1.81155
lhand -17.5732 21.9197
lfingers 7.12502
lthumb 8.68225 51.7212
rfemur -26.0453 0.735706 22.1519
rtibia 44.8441
rfoot -18.9132 -9.34586
rtoes -2.02862
lfemur -27.0808 2.97564 -21.0335
ltibia 44.1602
lfoot -20.338 1.50139
ltoes 2.6887
